HIERARCHY
ROOT Hips
{
	OFFSET 0.00000 0.00000 0.00000
	CHANNELS 6 Xposition Yposition Zposition Zrotation Yrotation Xrotation 
	JOINT LHipJoint
	{
		OFFSET 0 0 0
		CHANNELS 3 Zrotation Yrotation Xrotation
		JOINT LeftHip
		{
			OFFSET 1.66553 -1.82942 0.76350
			CHANNELS 3 Zrotation Yrotation Xrotation
			JOINT LeftKnee
			{
				OFFSET 2.41740 -6.64177 0.00000
				CHANNELS 3 Zrotation Yrotation Xrotation
				JOINT LeftAnkle
				{
					OFFSET 2.71614 -7.46254 0.00000
					CHANNELS 3 Zrotation Yrotation Xrotation
					JOINT LeftToe
					{
						OFFSET 0.08005 -0.21993 1.82495
						CHANNELS 3 Zrotation Yrotation Xrotation
						End Site
						{
							OFFSET 0.00000 -0.00000 0.93441
						}
					}
				}
			}
		}
	}
	JOINT RHipJoint
	{
		OFFSET 0 0 0
		CHANNELS 3 Zrotation Yrotation Xrotation
		JOINT RightHip
		{
			OFFSET -1.63725 -1.82942 0.76350
			CHANNELS 3 Zrotation Yrotation Xrotation
			JOINT RightKnee
			{
				OFFSET -2.40538 -6.60872 0.00000
				CHANNELS 3 Zrotation Yrotation Xrotation
				JOINT RightAnkle
				{
					OFFSET -2.73312 -7.50919 0.00000
					CHANNELS 3 Zrotation Yrotation Xrotation
					JOINT RightToe
					{
						OFFSET -0.15567 -0.42769 1.93504
						CHANNELS 3 Zrotation Yrotation Xrotation
						End Site
						{
							OFFSET -0.00000 -0.00000 1.00100
						}
					}
				}
			}
		}
	}
	JOINT lowerback
	{
		OFFSET 0 0 0
		CHANNELS 3 Zrotation Yrotation Xrotation
		JOINT Chest
		{
			OFFSET 0.00326 2.30118 -0.13017
			CHANNELS 3 Zrotation Yrotation Xrotation
			JOINT Chest2
			{
				OFFSET 0.02887 2.30677 0.00834
				CHANNELS 3 Zrotation Yrotation Xrotation
				JOINT lowerneck
				{
					OFFSET 0 0 0
					CHANNELS 3 Zrotation Yrotation Xrotation
					JOINT Neck
					{
						OFFSET 0.12946 1.68326 0.00713
						CHANNELS 3 Zrotation Yrotation Xrotation
						JOINT Head
						{
							OFFSET -0.24364 1.67243 -0.16079
							CHANNELS 3 Zrotation Yrotation Xrotation
							End Site
							{
								OFFSET -0.09229 1.70819 -0.06383
							}
						}
					}
				}
				JOINT LeftCollar
				{
					OFFSET 0 0 0
					CHANNELS 3 Zrotation Yrotation Xrotation
					JOINT LeftShoulder
					{
						OFFSET 3.28104 0.69567 -0.00556
CHANNELS 3 Zrotation Xrotation Yrotation
						JOINT LeftElbow
						{
OFFSET 0 -5.707060 -0.000000
CHANNELS 3 Zrotation Xrotation Yrotation
							JOINT LeftWrist
							{
OFFSET 0 -3.332430 0.000000
CHANNELS 3 Zrotation Xrotation Yrotation
								JOINT lhand
								{
									OFFSET 0 0 0
CHANNELS 3 Zrotation Xrotation Yrotation
									JOINT LFingers
									{
OFFSET 0 -0.792690 0.000000
CHANNELS 3 Zrotation Xrotation Yrotation
										End Site
										{
OFFSET 0 -0.639090 0.000000
										}
									}
								}
								JOINT LThumb
								{
OFFSET 0 0.000000 0.000000
CHANNELS 3 Zrotation Xrotation Yrotation
									End Site
									{
OFFSET 0 -0.648840 0.648840
									}
								}
							}
						}
					}
				}
				JOINT RightCollar
				{
					OFFSET 0 0 0
					CHANNELS 3 Zrotation Yrotation Xrotation
					JOINT RightShoulder
					{
						OFFSET -3.40955 0.64424 0.14010
CHANNELS 3 Zrotation Xrotation Yrotation
						JOINT RightElbow
						{
OFFSET 0 -5.881760 -0.000000
CHANNELS 3 Zrotation Xrotation Yrotation
							JOINT RightWrist
							{
OFFSET 0 -3.281560 0.000000
CHANNELS 3 Zrotation Xrotation Yrotation
								JOINT rhand
								{
									OFFSET 0 0 0
CHANNELS 3 Zrotation Xrotation Yrotation
									JOINT RFingers
									{
OFFSET 0 -0.863130 0.000000
CHANNELS 3 Zrotation Xrotation Yrotation
										End Site
										{
OFFSET 0 -0.695870 0.000000
										}
									}
								}
								JOINT RThumb
								{
OFFSET 0 0.000000 0.000000
CHANNELS 3 Zrotation Xrotation Yrotation
									End Site
									{
OFFSET 0 -0.706500 0.706500
									}
								}
							}
						}
					}
				}
			}
		}
	}
}
MOTION
Frames: 6
Frame Time: 0.008333333333333333
11.014300 7.218900 -24.420100 -0.404500 1.068600 -8.072600 0.000000 0.000000 0.000000 125.601700 74.358500 7.618400 38.844900 6.823800 160.805700 1.619000 -63.856200 -50.716800 1.506800 -7.752700 -21.965600 0.000000 0.000000 0.000000 -147.021700 -62.507800 34.560200 -38.947100 -6.524800 161.684900 -15.429200 57.270500 -79.347500 -0.088100 -1.914900 5.270600 1.270700 -2.347400 27.952200 -0.375000 -2.699800 3.833500 -0.167000 -1.306800 -11.271400 15.468400 7.267000 -1.242300 -16.296600 10.792800 10.226400 -7.073800 5.242500 4.975300 0.000000 -0.000000 0.000000 29.273300 -27.608500 -26.960300 33.738100 -43.889700 13.931200 41.358800 -16.563600 -7.219500 0.000000 0.000000 0.000000 -7.125000 0.000000 0.000000 12.665400 39.252600 1.828000 0.000000 -0.000000 0.000000 -19.736900 -37.467800 37.213200 -32.051800 -42.588400 -12.775800 -35.407200 -1.978700 -17.260500 0.000000 0.000000 0.000000 7.125000 0.000000 -0.000000 -4.855600 9.172700 -4.034400
11.054753 7.098191 -24.376505 -0.921228 0.539553 -7.660682 0.000000 0.000000 0.000000 131.992984 73.409151 10.650153 38.948862 6.519483 161.700614 1.144488 -66.232596 -51.486495 1.569991 -7.905652 -22.428254 0.000000 0.000000 0.000000 -148.776419 -62.404886 36.612206 -39.005373 -6.346956 162.205606 -15.915561 53.162690 -79.985085 -0.000416 0.129062 -0.354601 1.771661 -2.353984 28.645268 -0.261618 -2.529350 3.254096 -0.355555 -1.248112 -12.315315 15.626971 7.495136 -0.456188 -15.818765 11.040018 9.233893 -6.943097 5.430175 4.567650 0.000000 0.000000 0.000000 29.943608 -17.792820 -27.686779 17.297173 -27.246821 4.223099 39.638233 -3.939180 -5.905421 0.000000 0.000000 0.000000 -7.125000 0.000000 0.000000 11.002095 37.423289 2.081499 0.000000 0.000000 0.000000 -20.082582 -27.922466 35.846974 -21.928690 -32.895911 -6.547219 -31.453738 3.757815 -18.978408 0.000000 0.000000 0.000000 7.125000 0.000000 0.000000 -2.070177 8.035116 -1.761569
11.088947 7.612906 -24.309241 -0.575679 0.131297 -5.645433 0.000000 0.000000 0.000000 113.303995 77.755992 0.536480 38.544962 7.624349 158.421159 -0.530683 -63.256185 -45.460455 1.536868 -7.826062 -22.187040 0.000000 0.000000 0.000000 -144.100576 -70.013895 37.522359 -38.606412 -7.468442 158.889191 -11.715330 58.191905 -70.867133 -0.205946 -2.921439 8.060127 1.097393 -2.338265 27.011993 -0.404831 -2.767595 2.601500 -0.078277 -1.336015 -12.198740 15.703491 7.688235 0.267041 -15.040564 11.419425 10.385689 -6.696410 5.667378 4.813327 0.000000 0.000000 0.000000 30.187809 -6.067254 -22.747761 14.994182 -24.137889 3.223623 38.471491 -3.092801 -6.069016 0.000000 0.000000 0.000000 -7.125000 0.000000 0.000000 10.017566 37.541485 1.861478 0.000000 0.000000 0.000000 -21.777493 -18.636068 32.722408 -20.920704 -31.735692 -6.008212 -28.680767 3.930060 -18.829911 0.000000 0.000000 0.000000 7.125000 0.000000 0.000000 -0.311710 8.738932 -0.260723
11.094558 7.644430 -24.249333 -1.144205 0.110392 -5.906976 0.000000 0.000000 0.000000 108.596038 77.104061 -5.400413 38.540581 7.635249 158.388399 -0.787026 -63.407552 -45.013641 1.896194 -8.646461 -24.695434 0.000000 0.000000 0.000000 -142.341845 -70.229762 36.685368 -38.556043 -7.596489 158.504939 -11.639009 56.626616 -70.265862 -0.036936 -1.240203 3.409964 1.391311 -2.757870 27.290247 -0.188562 -3.197329 1.656315 0.197108 -1.536024 -13.462998 15.630995 7.762754 1.310174 -15.378133 11.745370 10.783909 -6.814008 5.853683 4.821575 0.000000 0.000000 0.000000 31.635583 -2.582077 -25.250207 17.788824 -27.885084 4.450424 39.980105 -5.944878 -6.163190 0.000000 0.000000 0.000000 -7.125000 0.000000 0.000000 11.326291 37.776900 2.045495 0.000000 0.000000 0.000000 -24.606917 -19.067929 32.529221 -23.423708 -34.548410 -7.377400 -29.542454 1.483030 -16.738486 0.000000 0.000000 0.000000 7.125000 0.000000 0.000000 -1.120105 10.913173 -0.887423
11.077853 7.202880 -24.353061 -0.303653 0.343653 -6.696550 0.000000 0.000000 0.000000 131.103909 74.665840 12.186281 38.874149 6.739484 161.054210 3.071831 -63.704119 -53.813057 2.035241 -8.933195 -25.590634 0.000000 0.000000 0.000000 -151.303908 -61.138800 37.346224 -38.997875 -6.370106 162.137875 -16.745715 59.786834 -82.682889 -0.461559 -4.357804 12.085422 0.692138 -2.434257 29.146263 -0.588700 -3.036043 0.792829 0.171180 -1.415931 -14.619593 16.055713 7.702675 1.591246 -15.383080 11.721720 11.017113 -6.900349 5.870774 4.866362 0.000000 0.000000 0.000000 34.993687 -10.742452 -29.872460 29.436646 -40.402523 11.043766 43.289012 -10.612264 -7.900423 0.000000 0.000000 0.000000 -7.125000 0.000000 0.000000 14.490150 40.346187 1.702251 0.000000 0.000000 0.000000 -25.742050 -28.393201 31.814229 -32.204609 -42.709398 -12.879476 -30.880829 -0.056683 -16.731068 0.000000 0.000000 0.000000 7.125000 0.000000 0.000000 -1.998109 10.685484 -1.594188
11.058777 7.085212 -24.432875 -0.169414 0.310583 -6.667769 0.000000 0.000000 0.000000 139.208365 73.628161 19.712459 38.968272 6.460822 161.872394 7.159468 -59.769125 -60.837310 2.691735 -10.178289 -29.556183 0.000000 0.000000 0.000000 -154.142558 -59.532439 38.386405 -39.060981 -6.172226 162.714972 -18.639448 61.121014 -87.004110 -0.504252 -4.550880 12.632124 0.651361 -2.134449 29.634500 -0.693940 -2.669585 0.869071 -0.051980 -1.250975 -14.755901 16.787691 7.644668 0.636488 -15.509290 11.618959 12.086920 -7.036627 5.801428 5.390405 0.000000 0.000000 0.000000 35.830996 -16.694268 -34.181430 43.358236 -49.935785 20.975258 42.497129 -9.178805 -7.477965 0.000000 0.000000 0.000000 -7.125000 0.000000 0.000000 13.711702 39.704723 1.829276 0.000000 0.000000 0.000000 -22.100945 -32.173622 34.757182 -40.142619 -48.153063 -18.545722 -28.618966 2.661315 -18.173674 0.000000 0.000000 0.000000 7.125000 0.000000 0.000000 -0.349920 9.475844 -0.287877
